HIERARCHY
ROOT Hips
{
	OFFSET 0.000000 0.000000 0.000000
	CHANNELS 6 Xposition Yposition Zposition Zrotation Yrotation Xrotation
	JOINT LHipJoint
	{
		OFFSET 0.000000 0.000000 0.000000
		CHANNELS 3 Zrotation Yrotation Xrotation
		JOINT LeftUpLeg
		{
			OFFSET 1.363060 -1.794630 0.839290
			CHANNELS 3 Zrotation Yrotation Xrotation
			JOINT LeftLeg
			{
				OFFSET 2.448110 -6.726130 0.000000
				CHANNELS 3 Zrotation Yrotation Xrotation
				JOINT LeftFoot
				{
					OFFSET 2.562200 -7.039590 0.000000
					CHANNELS 3 Zrotation Yrotation Xrotation
					JOINT LeftToeBase
					{
						OFFSET 0.157640 -0.433110 2.322550
						CHANNELS 3 Zrotation Yrotation Xrotation
						End Site
						{
							OFFSET 0.000000 0.000000 0.000000
						}
					}
				}
			}
		}
	}
	JOINT RHipJoint
	{
		OFFSET 0.000000 0.000000 0.000000
		CHANNELS 3 Zrotation Yrotation Xrotation
		JOINT RightUpLeg
		{
			OFFSET -1.305520 -1.794630 0.839290
			CHANNELS 3 Zrotation Yrotation Xrotation
			JOINT RightLeg
			{
				OFFSET -2.542530 -6.985550 0.000000
				CHANNELS 3 Zrotation Yrotation Xrotation
				JOINT RightFoot
				{
					OFFSET -2.568260 -7.056230 0.000000
					CHANNELS 3 Zrotation Yrotation Xrotation
					JOINT RightToeBase
					{
						OFFSET -0.164730 -0.452590 2.363150
						CHANNELS 3 Zrotation Yrotation Xrotation
						End Site
						{
							OFFSET 0.000000 0.000000 0.000000
						}
					}
				}
			}
		}
	}
	JOINT LowerBack
	{
		OFFSET 0.000000 0.000000 0.000000
		CHANNELS 3 Zrotation Yrotation Xrotation
		JOINT Spine
		{
			OFFSET 0.028270 2.035590 -0.193380
			CHANNELS 3 Zrotation Yrotation Xrotation
			JOINT Spine1
			{
				OFFSET 0.056720 2.048850 -0.042750
				CHANNELS 3 Zrotation Yrotation Xrotation
				JOINT Neck
				{
					OFFSET 0.000000 0.000000 0.000000
					CHANNELS 3 Zrotation Yrotation Xrotation
					JOINT Neck1
					{
						OFFSET -0.054170 1.746240 0.172020
						CHANNELS 3 Zrotation Yrotation Xrotation
						JOINT Head
						{
							OFFSET 0.104070 1.761360 -0.123970
							CHANNELS 3 Zrotation Yrotation Xrotation
							End Site
							{
								OFFSET 0.000000 0.000000 0.000000
							}
						}
					}
				}
				JOINT LeftShoulder
				{
					OFFSET 0.000000 0.000000 0.000000
					CHANNELS 3 Zrotation Yrotation Xrotation
					JOINT LeftArm
					{
						OFFSET 3.362410 1.200890 -0.311210
						CHANNELS 3 Zrotation Yrotation Xrotation
						JOINT LeftForeArm
						{
							OFFSET 4.983000 -0.000000 -0.000000
							CHANNELS 3 Zrotation Yrotation Xrotation
							JOINT LeftHand
							{
								OFFSET 3.483560 -0.000000 -0.000000
								CHANNELS 3 Zrotation Yrotation Xrotation
								JOINT LeftFingerBase
								{
									OFFSET 0.000000 0.000000 0.000000
									CHANNELS 3 Zrotation Yrotation Xrotation
									JOINT LeftHandIndex1
									{
										OFFSET 0.715260 -0.000000 -0.000000
										CHANNELS 3 Zrotation Yrotation Xrotation
										End Site
										{
											OFFSET 0.000000 0.000000 0.000000
										}
									}
								}
								JOINT LThumb
								{
									OFFSET 0.000000 0.000000 0.000000
									CHANNELS 3 Zrotation Yrotation Xrotation
									End Site
									{
										OFFSET 0.000000 0.000000 0.000000
									}
								}
							}
						}
					}
				}
				JOINT RightShoulder
				{
					OFFSET 0.000000 0.000000 0.000000
					CHANNELS 3 Zrotation Yrotation Xrotation
					JOINT RightArm
					{
						OFFSET -3.136600 1.374050 -0.404650
						CHANNELS 3 Zrotation Yrotation Xrotation
						JOINT RightForeArm
						{
							OFFSET -5.241900 -0.000000 -0.000000
							CHANNELS 3 Zrotation Yrotation Xrotation
							JOINT RightHand
							{
								OFFSET -3.444170 -0.000000 -0.000000
								CHANNELS 3 Zrotation Yrotation Xrotation
								JOINT RightFingerBase
								{
									OFFSET 0.000000 0.000000 0.000000
									CHANNELS 3 Zrotation Yrotation Xrotation
									JOINT RightHandIndex1
									{
										OFFSET -0.622530 -0.000000 -0.000000
										CHANNELS 3 Zrotation Yrotation Xrotation
										End Site
										{
											OFFSET 0.000000 0.000000 0.000000
										}
									}
								}
								JOINT RThumb
								{
									OFFSET 0.000000 0.000000 0.000000
									CHANNELS 3 Zrotation Yrotation Xrotation
									End Site
									{
										OFFSET 0.000000 0.000000 0.000000
									}
								}
							}
						}
					}
				}
			}
		}
	}
}
MOTION
Frames: 11
Frame Time: 0.008333
0.005782 0.005920 0.091064 -0.042214 -0.145840 -0.073859 -0.077716 -0.027037 0.023721 0.112251 -0.323865 0.033042 -0.564760 -0.284658 -1.573122 -0.007313 0.206821 -0.298982 -0.026805 -0.344148 -0.949130 0.055464 -0.014939 -0.079395 0.051991 -0.363645 0.669531 0.066955 0.220398 -0.443486 -0.003219 0.013430 0.035240 0.077838 0.108444 -0.379974 0.109051 0.036334 -0.053999 -0.019847 0.065150 0.036593 -0.074013 0.018976 0.083380 -0.058065 0.030203 0.158351 0.043248 0.034745 -0.114686 0.036341 0.007990 -0.071008 -0.003715 0.003454 -0.000792 -0.059568 0.093447 -0.031381 0.059316 -0.074350 -0.011477 0.031962 -0.058905 0.076763 0.223170 -0.577679 0.022488 0.000000 0.000000 0.000000 0.405490 -0.452464 0.289894 0.018095 -0.019701 0.005559 -0.111336 0.172853 0.332724 -0.191038 0.197366 -0.047871 -0.013744 -0.013338 -0.225767 -0.084976 0.012821 -0.028674 -0.000000 0.000000 0.000000 -0.048906 0.032797 -0.032346
-0.097696 0.273115 1.003064 0.182948 -0.130591 0.150984 0.086533 0.058627 0.086041 0.279311 -0.273610 0.865399 -0.630343 0.128236 -0.752487 -0.304831 -0.368530 0.803142 0.089356 0.182235 0.376794 0.364224 0.108412 0.267410 1.009468 0.136258 1.672511 -0.079839 0.204563 -0.431144 -0.120280 4.854139 4.453472 0.105895 0.468418 -5.387731 -1.037402 0.393025 -0.086572 0.047338 0.319208 0.021821 -0.045867 0.101578 -0.000330 0.184914 0.174268 0.070076 0.003548 0.215965 0.259438 0.457279 0.240289 0.063765 0.253664 0.136875 0.022206 0.704546 0.430680 2.091378 0.439283 0.396900 0.119399 -0.000955 -0.108806 0.799071 0.554824 1.237927 0.846853 0.009051 0.000000 0.000000 1.595145 1.378037 2.002995 0.120736 0.205584 0.041953 0.722996 1.257497 1.494991 0.504652 1.188725 -0.188679 -0.031582 0.070400 0.193134 3.353764 1.683153 2.453490 0.094412 0.000000 0.000000 4.043015 1.939467 1.200232
-0.246994 0.220964 0.628496 0.169435 -0.387182 0.143923 0.042556 0.060315 0.065324 0.188623 -0.469651 1.362012 -0.851366 0.263414 -0.878142 -0.727897 -0.944941 1.008582 0.046802 0.254174 0.332771 0.293122 0.102343 0.324061 0.896518 0.110148 1.819497 -0.413805 0.130844 -0.875412 -0.310451 9.403732 6.621947 0.075608 0.667491 -10.729998 -1.744679 0.848776 -0.212558 0.055582 0.540370 0.097424 0.063535 0.249415 0.099168 0.546619 0.396411 0.208189 0.043892 0.458952 0.749838 0.940152 0.457114 0.242537 0.613936 0.377963 0.071907 1.886463 0.862675 4.531693 0.792490 0.903089 0.244613 -0.034517 -0.103296 1.999707 1.174614 3.286403 1.575457 0.027420 0.000000 0.000000 3.117287 3.372807 3.950288 0.202201 0.438789 0.086301 1.719854 2.445667 2.408740 1.004787 2.003670 -0.369523 -0.017435 0.168089 0.652043 7.058722 3.502464 5.473623 0.201230 0.000000 0.000000 9.146115 4.256415 2.862536
-0.309783 0.351977 0.967942 0.301151 -0.414585 0.385044 0.210270 0.161714 0.140427 0.368751 -0.514188 2.098502 -1.033989 0.491401 -0.944169 -1.141813 -1.435739 1.217189 0.021725 0.364748 0.426987 0.332102 0.148479 0.470074 1.086672 0.256882 2.305762 -0.671219 0.198203 -1.026982 -0.423484 13.863285 8.454957 0.067019 0.806919 -16.360977 -2.389935 1.265686 -0.437166 0.038444 0.724238 0.115927 0.132365 0.375372 0.104814 0.840965 0.580664 0.288017 0.058754 0.638616 1.176340 1.379252 0.638917 0.379790 0.928741 0.581717 0.111512 2.832711 1.191383 6.669703 1.065004 1.349578 0.355480 -0.070328 -0.100436 3.044887 1.751486 5.208341 2.226605 0.038196 0.000000 0.000000 4.414412 5.121620 5.711809 0.260012 0.650594 0.119267 2.500556 3.523691 3.142123 1.418233 2.696811 -0.668027 -0.013380 0.248374 0.993373 9.913568 5.021072 7.907497 0.290207 0.000000 0.000000 13.468098 6.128113 3.758161
-0.201378 0.370567 0.797639 0.301470 -0.614829 0.376581 0.158375 0.167074 0.141680 0.430783 -0.655674 2.791183 -1.164788 0.655293 -1.213989 -1.373431 -1.209758 1.178041 0.003592 0.356197 -0.123637 0.334694 0.186958 0.426004 1.022786 0.145131 2.383902 -0.774975 0.347305 -0.699937 -0.355058 16.219891 9.173623 0.061684 0.769787 -20.729349 -2.150299 1.602632 -0.598396 0.026780 0.799953 0.137653 0.191318 0.446791 0.275698 1.009306 0.691637 0.477699 0.069666 0.682630 1.429822 1.643100 0.625214 0.326688 0.990695 0.630319 0.121316 2.905137 1.240802 7.148691 1.027705 1.346431 0.342921 -0.107597 -0.136695 3.198005 1.942872 5.893293 2.133777 -0.012594 0.000000 0.000000 4.521767 5.196947 5.965139 0.246319 0.702634 0.121015 2.917935 3.941498 3.383591 1.343258 2.862701 -0.942546 0.008026 0.286863 1.084470 10.877204 5.308512 8.448348 0.325918 0.000000 0.000000 14.995458 6.378001 3.031574
-0.243132 0.214676 -0.138294 0.123569 -0.843457 0.328368 0.067703 0.108600 0.081541 0.497243 -0.787327 3.353921 -1.363685 0.656569 -1.886297 -1.363598 -0.505841 0.823645 -0.039131 0.217275 -0.646266 0.183891 0.179435 0.249271 0.755251 -0.191670 2.124815 -0.788595 0.496008 -0.716693 -0.338459 15.368443 7.181739 0.044729 0.664748 -22.312637 -1.136334 1.804044 -0.955503 -0.066509 0.717587 0.085334 0.202304 0.452527 0.296197 0.936719 0.641942 0.687994 0.011465 0.558899 1.430021 1.661288 0.457469 0.214995 0.956886 0.627641 0.121322 2.597419 1.181316 6.791319 0.900566 1.272153 0.307946 -0.104831 -0.075570 3.626003 2.312467 6.084251 1.764741 -0.043559 0.000000 0.000000 4.951941 5.306380 6.215579 0.275987 0.710932 0.118492 3.334059 3.909833 3.029133 0.973324 2.753464 -1.030761 0.070550 0.299431 1.019090 10.478000 4.956599 8.456104 0.347048 0.000000 0.000000 15.455704 6.017095 2.881611
-0.320525 0.280139 -0.223312 0.186011 -0.903315 0.380565 0.055639 0.040310 0.016178 0.639045 -0.925352 3.533077 -1.510814 0.794410 -2.009025 -1.261102 -0.115736 0.591925 -0.033676 0.197357 -0.581422 0.018186 0.169162 0.127223 0.841546 -0.396257 2.242339 -0.689342 0.439836 -1.119964 -0.454089 13.409143 6.965842 0.049994 0.658899 -24.162407 -0.960126 1.892756 -1.441918 -0.150581 0.659973 -0.127163 0.100616 0.390990 0.147098 0.818598 0.578191 0.930805 -0.083488 0.398780 1.385714 1.709917 0.369821 0.119684 0.901415 0.545238 0.095665 1.918191 0.984300 5.993783 0.763538 1.137909 0.268576 -0.099716 -0.111433 3.030735 2.109942 5.695014 1.404413 -0.115146 0.000000 0.000000 4.224024 4.237206 5.412032 0.180338 0.609114 0.063111 2.903588 3.535113 2.701357 0.594101 2.656286 -1.269088 0.067750 0.266052 0.641132 8.030871 3.719327 6.628621 0.317748 0.000000 0.000000 13.665696 4.400314 0.683569
-0.425686 0.294343 -0.552477 0.190892 -1.052402 0.310584 -0.064182 -0.080923 -0.098344 0.613243 -1.217095 3.357990 -1.733949 0.719880 -2.612048 -1.234626 -0.059646 -0.013079 -0.074491 0.050025 -0.963405 -0.318938 0.097991 -0.092890 0.587201 -0.766015 2.152804 -0.640150 0.283407 -1.687187 -0.620471 11.478426 6.912061 0.033051 0.678719 -26.066126 -0.873566 1.980988 -1.877720 -0.227631 0.612129 -0.341295 -0.003311 0.328653 -0.011067 0.704562 0.519980 1.170919 -0.186176 0.236906 1.309576 1.743799 0.280053 -0.002251 0.802931 0.436935 0.063836 1.079631 0.730609 5.068539 0.606638 0.957119 0.222645 -0.100690 -0.165584 2.304206 1.809859 5.240969 1.040648 -0.192505 0.000000 0.000000 3.287596 2.917596 4.418582 0.056546 0.486731 0.000837 2.360258 3.145591 2.379419 0.186038 2.575815 -1.517267 0.058295 0.231033 0.284859 5.731843 2.527526 4.880090 0.289949 0.000000 0.000000 11.870317 2.775713 -1.581466
-0.482258 0.420343 -0.487527 0.316576 -0.961738 0.468644 0.012851 -0.127036 -0.152697 0.815991 -1.378666 3.510186 -1.896633 0.762233 -2.831348 -1.193817 0.100927 -0.303667 -0.051650 0.110390 -0.853472 -0.446759 0.101984 -0.134787 0.709610 -0.992175 2.388243 -0.626218 0.209537 -2.126583 -0.783623 10.166273 6.916041 -0.048746 0.599655 -29.391758 -1.082448 1.995946 -2.467144 -0.306404 0.561136 -0.599988 -0.139025 0.256508 -0.212477 0.570369 0.444862 1.289047 -0.316234 0.078391 1.209819 1.831956 0.218205 -0.077014 0.750638 0.322441 0.033232 0.323656 0.490714 4.642217 0.492220 0.824748 0.194792 -0.109471 -0.210497 1.836864 1.634545 5.299036 0.871373 -0.242272 0.000000 0.000000 2.786806 2.146166 4.001618 -0.047187 0.403557 -0.051478 1.955297 2.949285 2.151159 -0.163110 2.564313 -1.878140 0.038029 0.193095 -0.080684 3.689285 1.492041 3.416253 0.267871 0.000000 0.000000 10.648352 1.467666 -3.439171
-0.588295 0.439067 -0.841836 0.340962 -0.970639 0.455337 -0.052450 -0.263918 -0.267659 0.807574 -1.724453 3.661939 -2.118355 0.633583 -3.469355 -1.260214 -0.076370 -1.138836 -0.121553 -0.082974 -1.534102 -0.895299 -0.012591 -0.369904 0.248152 -1.445893 2.253299 -0.757986 0.037343 -2.980979 -1.051685 9.245780 6.365913 -0.187573 0.396949 -33.976254 -1.454479 1.927763 -3.258700 -0.352780 0.463503 -0.955642 -0.340037 0.148714 -0.470056 0.364731 0.314806 1.282135 -0.502362 -0.149489 1.002700 1.912333 0.141592 -0.211251 0.628064 0.122579 -0.010520 -0.719205 0.140736 4.109134 0.227373 0.547582 0.131666 -0.140358 -0.283977 0.920228 1.201922 5.151473 0.551299 -0.324133 0.000000 0.000000 1.515943 0.419192 2.751148 -0.268427 0.259015 -0.134141 1.113354 2.677173 1.718819 -0.768696 2.312987 -2.464906 -0.008325 0.131976 -0.648079 0.789995 -0.119799 0.836318 0.215259 0.000000 0.000000 8.101310 -0.613352 -6.773247
-0.662159 0.531610 -0.917001 0.396541 -0.871205 0.526630 -0.033016 -0.366399 -0.313986 1.021091 -1.921016 4.412827 -2.235330 0.723003 -3.541587 -1.277890 0.182667 -1.372423 -0.086291 0.073627 -1.317960 -0.943427 0.016981 -0.384592 0.325550 -1.554814 2.668653 -0.824425 0.118807 -3.060974 -1.120691 9.783355 6.808687 -0.201564 0.551479 -38.057701 -1.424138 2.059327 -3.297413 -0.153920 0.606014 -0.899326 -0.289081 0.154299 -0.282893 0.516966 0.424480 1.688135 -0.503846 -0.035109 1.237841 2.215940 0.172194 -0.117489 0.754018 0.107705 -0.002239 -0.462309 0.214198 4.777133 0.248430 0.708342 0.175393 -0.141168 -0.265584 1.176205 1.415685 6.014420 0.581555 -0.330566 0.000000 0.000000 1.970872 0.799165 3.596778 -0.166260 0.357172 -0.137383 1.447119 2.967053 1.965964 -0.679756 2.669493 -2.625707 0.015474 0.145170 -0.553058 2.648973 0.254903 1.513614 0.244661 0.000000 0.000000 9.607537 -0.333323 -6.224131
